<svg width="92" height="85" viewBox="0 0 92 85" fill="none" xmlns="http://www.w3.org/2000/svg">
<g id="Vector" filter="url(#filter0_d_80_35)">
<path d="M86.3906 68.814H12.4844V1.78271C12.4844 1.31006 12.0977 0.92334 11.625 0.92334H5.60938C5.13672 0.92334 4.75 1.31006 4.75 1.78271V75.689C4.75 76.1616 5.13672 76.5483 5.60938 76.5483H86.3906C86.8633 76.5483 87.25 76.1616 87.25 75.689V69.6733C87.25 69.2007 86.8633 68.814 86.3906 68.814ZM23.8496 52.2388C24.1826 52.5718 24.7197 52.5718 25.0635 52.2388L39.9199 37.4575L53.627 51.2505C53.96 51.5835 54.5078 51.5835 54.8408 51.2505L84.4248 21.6772C84.7578 21.3442 84.7578 20.7964 84.4248 20.4634L80.1709 16.2095C80.0094 16.0495 79.7913 15.9598 79.564 15.9598C79.3367 15.9598 79.1185 16.0495 78.957 16.2095L54.25 40.9058L40.5645 27.1343C40.4029 26.9743 40.1848 26.8846 39.9575 26.8846C39.7302 26.8846 39.5121 26.9743 39.3506 27.1343L19.6064 46.7603C19.4465 46.9218 19.3568 47.1399 19.3568 47.3672C19.3568 47.5945 19.4465 47.8126 19.6064 47.9741L23.8496 52.2388Z" fill="black"/>
</g>
<defs>
<filter id="filter0_d_80_35" x="0.75" y="0.92334" width="90.5" height="83.625" filterUnits="userSpaceOnUse" color-interpolation-filters="sRGB">
<feFlood flood-opacity="0" result="BackgroundImageFix"/>
<feColorMatrix in="SourceAlpha" type="matrix" values="0 0 0 0 0 0 0 0 0 0 0 0 0 0 0 0 0 0 127 0" result="hardAlpha"/>
<feOffset dy="4"/>
<feGaussianBlur stdDeviation="2"/>
<feComposite in2="hardAlpha" operator="out"/>
<feColorMatrix type="matrix" values="0 0 0 0 0 0 0 0 0 0 0 0 0 0 0 0 0 0 0.25 0"/>
<feBlend mode="normal" in2="BackgroundImageFix" result="effect1_dropShadow_80_35"/>
<feBlend mode="normal" in="SourceGraphic" in2="effect1_dropShadow_80_35" result="shape"/>
</filter>
</defs>
</svg>
